<?xml version="1.0" encoding="UTF-8" standalone="no"?>
<svg
   xmlns:dc="http://purl.org/dc/elements/1.1/"
   xmlns:cc="http://creativecommons.org/ns#"
   xmlns:rdf="http://www.w3.org/1999/02/22-rdf-syntax-ns#"
   xmlns:svg="http://www.w3.org/2000/svg"
   xmlns="http://www.w3.org/2000/svg"
   id="svg240"
   viewBox="0, 0, 4096, 4096"
   height="4096"
   width="4096"
   y="0"
   x="0"
   version="1.1">
  <metadata
     id="metadata246">
    <rdf:RDF>
      <cc:Work
         rdf:about="">
        <dc:format>image/svg+xml</dc:format>
        <dc:type
           rdf:resource="http://purl.org/dc/dcmitype/StillImage" />
        <dc:title></dc:title>
      </cc:Work>
    </rdf:RDF>
  </metadata>
  <defs
     id="defs244" />
  <g
     id="Layer_1">
    <g
       id="g237">
      <g
         id="g187">
        <path
           id="path183"
           fill="#515151"
           d="M0.5,0.5 L4096.5,0.5 L4096.5,4096.5 L0.5,4096.5 L0.5,0.5 z" />
        <path
           id="path185"
           stroke-width="20"
           stroke="#383838"
           fill-opacity="0"
           d="M0.5,0.5 L4096.5,0.5 L4096.5,4096.5 L0.5,4096.5 L0.5,0.5 z" />
      </g>
      <g
         id="g221">
        <path
           id="path189"
           stroke-width="20"
           stroke="#CFB400"
           fill-opacity="0"
           d="M197.634,177.634 L1133.067,177.634 L1133.067,1113.067 L197.634,1113.067 L197.634,177.634 z" />
        <path
           id="path191"
           stroke-width="20"
           stroke="#CFB400"
           fill-opacity="0"
           d="M1133.067,177.634 L2068.5,177.634 L2068.5,1113.067 L1133.067,1113.067 L1133.067,177.634 z" />
        <path
           id="path193"
           stroke-width="20"
           stroke="#CFB400"
           fill-opacity="0"
           d="M2068.5,177.634 L3003.933,177.634 L3003.933,1113.067 L2068.5,1113.067 L2068.5,177.634 z" />
        <path
           id="path195"
           stroke-width="20"
           stroke="#CFB400"
           fill-opacity="0"
           d="M3003.933,177.634 L3939.366,177.634 L3939.366,1113.067 L3003.933,1113.067 L3003.933,177.634 z" />
        <path
           id="path197"
           stroke-width="20"
           stroke="#CFB400"
           fill-opacity="0"
           d="M197.634,1113.067 L1133.067,1113.067 L1133.067,2048.5 L197.634,2048.5 L197.634,1113.067 z" />
        <path
           id="path199"
           stroke-width="20"
           stroke="#CFB400"
           fill-opacity="0"
           d="M1133.067,1113.067 L2068.5,1113.067 L2068.5,2048.5 L1133.067,2048.5 L1133.067,1113.067 z" />
        <path
           id="path201"
           stroke-width="20"
           stroke="#CFB400"
           fill-opacity="0"
           d="M2068.5,1113.067 L3003.933,1113.067 L3003.933,2048.5 L2068.5,2048.5 L2068.5,1113.067 z" />
        <path
           id="path203"
           stroke-width="20"
           stroke="#CFB400"
           fill-opacity="0"
           d="M3003.933,1113.067 L3939.366,1113.067 L3939.366,2048.5 L3003.933,2048.5 L3003.933,1113.067 z" />
        <path
           id="path205"
           stroke-width="20"
           stroke="#CFB400"
           fill-opacity="0"
           d="M197.634,2048.5 L1133.067,2048.5 L1133.067,2983.933 L197.634,2983.933 L197.634,2048.5 z" />
        <path
           id="path207"
           stroke-width="20"
           stroke="#CFB400"
           fill-opacity="0"
           d="M1133.067,2048.5 L2068.5,2048.5 L2068.5,2983.933 L1133.067,2983.933 L1133.067,2048.5 z" />
        <path
           id="path209"
           stroke-width="20"
           stroke="#CFB400"
           fill-opacity="0"
           d="M2068.5,2048.5 L3003.933,2048.5 L3003.933,2983.933 L2068.5,2983.933 L2068.5,2048.5 z" />
        <path
           id="path211"
           stroke-width="20"
           stroke="#CFB400"
           fill-opacity="0"
           d="M3003.933,2048.5 L3939.366,2048.5 L3939.366,2983.933 L3003.933,2983.933 L3003.933,2048.5 z" />
        <path
           id="path213"
           stroke-width="20"
           stroke="#CFB400"
           fill-opacity="0"
           d="M197.634,2983.933 L1133.067,2983.933 L1133.067,3919.366 L197.634,3919.366 L197.634,2983.933 z" />
        <path
           id="path215"
           stroke-width="20"
           stroke="#CFB400"
           fill-opacity="0"
           d="M1133.067,2983.933 L2068.5,2983.933 L2068.5,3919.366 L1133.067,3919.366 L1133.067,2983.933 z" />
        <path
           id="path217"
           stroke-width="20"
           stroke="#CFB400"
           fill-opacity="0"
           d="M2068.5,2983.933 L3003.933,2983.933 L3003.933,3919.366 L2068.5,3919.366 L2068.5,2983.933 z" />
        <path
           id="path219"
           stroke-width="20"
           stroke="#CFB400"
           fill-opacity="0"
           d="M3003.933,2983.933 L3939.366,2983.933 L3939.366,3919.366 L3003.933,3919.366 L3003.933,2983.933 z" />
      </g>
      <path
         id="path223"
         fill="#515151"
         d="M3180,3863 L4004,3863 L4004,4017 L3180,4017 L3180,3863 z" />
      <g
         id="g229">
        <path
           id="path225"
           fill="#FFE436"
           d="M3268.5,3939.5 L3324.797,3823.203 L3508.5,3941.567 L3324.797,4057.797 L3268.5,3939.5 z" />
        <path
           id="path227"
           stroke-width="9"
           stroke="#AA9400"
           fill-opacity="0"
           d="M3268.5,3939.5 L3324.797,3823.203 L3508.5,3941.567 L3324.797,4057.797 L3268.5,3939.5 z" />
      </g>
      <g
         id="g235">
        <path
           id="path231"
           fill="#FFE436"
           d="M3207.5,3940.5 L3324.797,3823.203 L3442.094,3940.5 L3324.797,4057.797 L3207.5,3940.5 z" />
        <path
           id="path233"
           stroke-width="9"
           stroke="#AA9400"
           fill-opacity="0"
           d="M3207.5,3940.5 L3324.797,3823.203 L3442.094,3940.5 L3324.797,4057.797 L3207.5,3940.5 z" />
      </g>
    </g>
  </g>
  <text
     transform="scale(0.77045733,1.2979304)"
     id="text250"
     y="3072.9829"
     x="4590.1519"
     style="font-style:normal;font-weight:bold;font-size:108.84499999999999886px;line-height:1.25;font-family:sans-serif;fill:#000000;fill-opacity:1;stroke:none;stroke-width:3;stroke-miterlimit:4;stroke-dasharray:none;-inkscape-font-specification:'sans-serif, Bold';font-stretch:normal;font-variant:normal;font-variant-ligatures:normal;font-variant-caps:normal;font-variant-numeric:normal;font-variant-east-asian:normal;"
     xml:space="preserve"><tspan
       style="stroke-width:3;stroke-miterlimit:4;stroke-dasharray:none;-inkscape-font-specification:'sans-serif, Bold';font-family:sans-serif;font-weight:bold;font-style:normal;font-stretch:normal;font-variant:normal;font-size:108.84500122px;font-variant-ligatures:normal;font-variant-caps:normal;font-variant-numeric:normal;font-variant-east-asian:normal;"
       y="3072.9829"
       x="4590.1519"
       id="tspan248">ANYCUBIC</tspan></text>
</svg>
